External Loads File
version=1
nRows=78
nColumns=13
Range=5.000000e-03-10 seconds
endheader
time 	forceRightX 	forceRightY 	forceRightZ 	pointRightX 	pointRightY 	pointRightZ 	forceLeftX 	forceLeftY 	forceLeftZ 	pointLeftX 	pointLeftY 	pointLeftZ 		
0.005000 75.773655 156.299414 -0.000000 0.215242 0.466392 -0.140600 -73.773772 546.295944 -0.000000 0.323072 0.173660 -0.372971
0.010000 75.700757 154.611074 -0.000000 0.215186 0.466365 -0.140594 -72.494800 544.263057 -0.000000 0.323097 0.173694 -0.372983
0.015000 75.565128 153.068670 -0.000000 0.215159 0.466349 -0.140591 -71.301145 542.190593 -0.000000 0.323140 0.173726 -0.372975
0.020000 75.325872 151.762015 -0.000000 0.215133 0.466321 -0.140588 -70.283055 540.070575 -0.000000 0.323174 0.173761 -0.372963
0.025000 74.973820 150.717170 -0.000000 0.215092 0.466291 -0.140577 -69.457908 537.913911 -0.000000 0.323192 0.173761 -0.372990
0.030000 74.530721 149.905668 -0.000000 0.215110 0.466278 -0.140544 -68.775897 535.749935 -0.000000 0.323207 0.173847 -0.372941
0.035000 74.003037 149.285029 -0.000000 0.215114 0.466270 -0.140534 -68.275041 533.608010 -0.000000 0.323228 0.173882 -0.372923
0.040000 73.421627 148.792853 -0.000000 0.215126 0.466259 -0.140522 -67.917097 531.534225 -0.000000 0.323253 0.173905 -0.372896
0.045000 72.821308 148.367166 -0.000000 0.215148 0.466249 -0.140515 -67.632908 529.578540 -0.000000 0.323252 0.173930 -0.372899
0.050000 72.208673 147.968760 -0.000000 0.215179 0.466244 -0.140527 -67.443356 527.781988 -0.000000 0.323255 0.173938 -0.372880
0.055000 71.581964 147.566474 -0.000000 0.215192 0.466236 -0.140516 -67.411420 526.182363 -0.000000 0.323255 0.173970 -0.372880
0.060000 70.974549 147.115555 -0.000000 0.215228 0.466241 -0.140512 -67.471227 524.831231 -0.000000 0.323270 0.173985 -0.372852
0.065000 70.385773 146.614366 -0.000000 0.215252 0.466247 -0.140518 -67.645623 523.771028 -0.000000 0.323266 0.173987 -0.372862
0.070000 69.788471 146.116445 -0.000000 0.215269 0.466239 -0.140529 -68.022712 523.030730 -0.000000 0.323281 0.174004 -0.372852
0.075000 69.199470 145.677833 -0.000000 0.215299 0.466228 -0.140538 -68.527144 522.626780 -0.000000 0.323301 0.174030 -0.372842
0.080000 68.627206 145.352929 -0.000000 0.215326 0.466239 -0.140542 -69.127319 522.523530 -0.000000 0.323328 0.174032 -0.372829
0.085000 68.078300 145.175927 -0.000000 0.215327 0.466234 -0.140541 -69.815422 522.658436 -0.000000 0.323346 0.174028 -0.372822
0.090000 67.566675 145.155243 -0.000000 0.215325 0.466209 -0.140547 -70.565421 522.983302 -0.000000 0.323387 0.174043 -0.372814
0.095000 67.132722 145.273730 -0.000000 0.215331 0.466184 -0.140558 -71.259614 523.489311 -0.000000 0.323429 0.174061 -0.372809
0.100000 66.791589 145.523265 -0.000000 0.215319 0.466172 -0.140567 -71.876861 524.165993 -0.000000 0.323461 0.174090 -0.372793
0.105000 66.575894 145.886169 -0.000000 0.215306 0.466165 -0.140582 -72.337653 525.001442 -0.000000 0.323485 0.174062 -0.372809
0.110000 66.472793 146.354432 -0.000000 0.215271 0.466172 -0.140580 -72.728814 525.946693 -0.000000 0.323505 0.174088 -0.372809
0.115000 66.523477 146.871492 -0.000000 0.215244 0.466181 -0.140580 -72.944225 526.965041 -0.000000 0.323512 0.174081 -0.372808
0.120000 66.732665 147.376750 -0.000000 0.215234 0.466179 -0.140580 -72.997525 527.993617 -0.000000 0.323512 0.174062 -0.372821
0.125000 67.090273 147.819971 -0.000000 0.215202 0.466208 -0.140568 -72.917154 528.976874 -0.000000 0.323490 0.174057 -0.372836
0.130000 67.576861 148.176079 -0.000000 0.215171 0.466240 -0.140563 -72.719193 529.887811 -0.000000 0.323471 0.174030 -0.372857
0.135000 68.151585 148.447988 -0.000000 0.215121 0.466291 -0.140548 -72.474483 530.719370 -0.000000 0.323450 0.174029 -0.372861
0.140000 68.788944 148.651376 -0.000000 0.215088 0.466312 -0.140548 -72.183845 531.487118 -0.000000 0.323433 0.174025 -0.372861
0.145000 69.445580 148.832615 -0.000000 0.215052 0.466316 -0.140545 -71.884197 532.202221 -0.000000 0.323417 0.173979 -0.372868
0.150000 70.075410 149.040878 -0.000000 0.215014 0.466344 -0.140546 -71.616700 532.881470 -0.000000 0.323391 0.173989 -0.372887
0.155000 70.647711 149.296399 -0.000000 0.214982 0.466357 -0.140558 -71.395711 533.564661 -0.000000 0.323379 0.173962 -0.372882
0.160000 71.134464 149.602343 -0.000000 0.214959 0.466373 -0.140567 -71.247800 534.310684 -0.000000 0.323377 0.173954 -0.372881
0.165000 71.509068 149.959471 -0.000000 0.214931 0.466371 -0.140570 -71.215132 535.182213 -0.000000 0.323377 0.173955 -0.372878
0.170000 71.774812 150.351825 -0.000000 0.214890 0.466389 -0.140572 -71.300851 536.232264 -0.000000 0.323384 0.173944 -0.372891
0.175000 71.955503 150.757472 -0.000000 0.214855 0.466373 -0.140573 -71.522028 537.480186 -0.000000 0.323387 0.173961 -0.372901
0.180000 72.100183 151.159575 -0.000000 0.214827 0.466376 -0.140583 -71.843601 538.910964 -0.000000 0.323412 0.173956 -0.372881
0.185000 72.260588 151.545868 -0.000000 0.214809 0.466366 -0.140592 -72.207736 540.474797 -0.000000 0.323416 0.173972 -0.372880
0.190000 72.468788 151.905064 -0.000000 0.214766 0.466381 -0.140600 -72.584755 542.099129 -0.000000 0.323413 0.173960 -0.372892
0.195000 72.747339 152.235754 -0.000000 0.214736 0.466367 -0.140598 -72.924315 543.718389 -0.000000 0.323399 0.173963 -0.372888
0.200000 73.107264 152.555944 -0.000000 0.214710 0.466387 -0.140612 -73.178010 545.281058 -0.000000 0.323390 0.173950 -0.372888
0.205000 73.548375 152.885310 -0.000000 0.214693 0.466402 -0.140616 -73.317868 546.741914 -0.000000 0.323361 0.173947 -0.372880
0.210000 74.042222 153.235307 -0.000000 0.214647 0.466428 -0.140618 -73.395307 548.049640 -0.000000 0.323325 0.173942 -0.372874
0.215000 74.584035 153.579764 -0.000000 0.214619 0.466442 -0.140638 -73.353367 549.178882 -0.000000 0.323289 0.173943 -0.372929
0.220000 75.156830 153.883746 -0.000000 0.214594 0.466477 -0.140634 -73.172471 550.116916 -0.000000 0.323248 0.173924 -0.372902
0.225000 75.718234 154.134058 -0.000000 0.214571 0.466495 -0.140649 -72.931173 550.845756 -0.000000 0.323220 0.173912 -0.372892
0.230000 76.268049 154.315617 -0.000000 0.214550 0.466526 -0.140671 -72.571207 551.362455 -0.000000 0.323170 0.173911 -0.372898
0.235000 76.761838 154.438610 -0.000000 0.214514 0.466532 -0.140661 -72.224676 551.644887 -0.000000 0.323130 0.173929 -0.372914
0.240000 77.218518 154.474305 -0.000000 0.214493 0.466553 -0.140660 -71.829576 551.716338 -0.000000 0.323103 0.173940 -0.372884
0.245000 77.625154 154.414978 -0.000000 0.214475 0.466559 -0.140658 -71.431586 551.612272 -0.000000 0.323077 0.173940 -0.372891
0.250000 77.949899 154.285417 -0.000000 0.214452 0.466549 -0.140651 -71.103157 551.387879 -0.000000 0.323061 0.173952 -0.372887
0.255000 78.192452 154.110504 -0.000000 0.214450 0.466554 -0.140637 -70.775175 551.113097 -0.000000 0.323034 0.173974 -0.372884
0.260000 78.299345 153.930481 -0.000000 0.214442 0.466539 -0.140624 -70.600820 550.802232 -0.000000 0.323030 0.174008 -0.372856
0.265000 78.310282 153.711526 -0.000000 0.214456 0.466528 -0.140624 -70.474411 550.483440 -0.000000 0.323031 0.173997 -0.372837
0.270000 78.216396 153.433954 -0.000000 0.214468 0.466518 -0.140613 -70.490060 550.152336 -0.000000 0.323033 0.174023 -0.372825
0.275000 78.037904 153.078984 -0.000000 0.214482 0.466516 -0.140598 -70.584785 549.819895 -0.000000 0.323025 0.174029 -0.372824
0.280000 77.753087 152.667557 -0.000000 0.214517 0.466507 -0.140587 -70.789695 549.481881 -0.000000 0.323031 0.174043 -0.372801
0.285000 77.342805 152.220815 -0.000000 0.214555 0.466512 -0.140592 -71.130077 549.130738 -0.000000 0.323052 0.174061 -0.372773
0.290000 76.812424 151.741894 -0.000000 0.214594 0.466512 -0.140581 -71.583969 548.756089 -0.000000 0.323070 0.174065 -0.372756
0.295000 76.176664 151.231878 -0.000000 0.214648 0.466509 -0.140570 -72.119654 548.338092 -0.000000 0.323086 0.174059 -0.372745
0.300000 75.431077 150.708536 -0.000000 0.214698 0.466514 -0.140555 -72.771711 547.841932 -0.000000 0.323114 0.174059 -0.372728
0.305000 74.608615 150.174260 -0.000000 0.214775 0.466518 -0.140534 -73.436209 547.252893 -0.000000 0.323141 0.174061 -0.372724
0.310000 73.709382 149.647353 -0.000000 0.214841 0.466516 -0.140542 -74.130550 546.539641 -0.000000 0.323174 0.174037 -0.372731
0.315000 72.755482 149.125826 -0.000000 0.214909 0.466507 -0.140526 -74.793399 545.667337 -0.000000 0.323201 0.174030 -0.372727
0.320000 71.763100 148.596961 -0.000000 0.214981 0.466489 -0.140515 -75.393801 544.588568 -0.000000 0.323234 0.174038 -0.372745
0.325000 70.765562 148.039553 -0.000000 0.215056 0.466492 -0.140504 -75.856718 543.280029 -0.000000 0.323269 0.174030 -0.372742
0.330000 69.781270 147.449439 -0.000000 0.215127 0.466498 -0.140509 -76.193760 541.734228 -0.000000 0.323310 0.174000 -0.372749
0.335000 68.835886 146.824712 -0.000000 0.215188 0.466491 -0.140498 -76.416170 539.961293 -0.000000 0.323333 0.173998 -0.372768
0.340000 67.956108 146.170250 -0.000000 0.215269 0.466492 -0.140485 -76.513723 537.991999 -0.000000 0.323367 0.174010 -0.372769
0.345000 67.142165 145.510643 -0.000000 0.215334 0.466497 -0.140487 -76.532910 535.868022 -0.000000 0.323413 0.173976 -0.372756
0.350000 66.411544 144.856833 -0.000000 0.215410 0.466512 -0.140480 -76.442660 533.641964 -0.000000 0.323441 0.173964 -0.372757
0.355000 65.746771 144.224068 -0.000000 0.215487 0.466518 -0.140477 -76.338265 531.335393 -0.000000 0.323489 0.173958 -0.372777
0.360000 65.141344 143.618170 -0.000000 0.215536 0.466551 -0.140475 -76.243584 528.980300 -0.000000 0.323532 0.173955 -0.372769
0.365000 64.576561 143.048479 -0.000000 0.215607 0.466550 -0.140472 -76.177676 526.622230 -0.000000 0.323587 0.173947 -0.372772
0.370000 64.009766 142.528569 -0.000000 0.215656 0.466573 -0.140454 -76.211495 524.305768 -0.000000 0.323654 0.173937 -0.372754
0.375000 63.415855 142.058565 -0.000000 0.215707 0.466579 -0.140455 -76.343552 522.075358 -0.000000 0.323732 0.173926 -0.372750
0.380000 62.772630 141.640792 -0.000000 0.215749 0.466570 -0.140452 -76.575147 519.949453 -0.000000 0.323803 0.173952 -0.372733
0.385000 62.071717 141.283592 -0.000000 0.215784 0.466571 -0.140436 -76.877701 517.930073 -0.000000 0.323901 0.173944 -0.372730
0.390000 61.310378 140.997584 -0.000000 0.215807 0.466531 -0.140458 -77.243780 516.012525 -0.000000 0.324006 0.173953 -0.372731
